<?xml version="1.0" ?><svg id="Layer_1_1_" style="enable-background:new 0 0 16 16;" version="1.1" viewBox="0 0 16 16" xml:space="preserve" xmlns="http://www.w3.org/2000/svg" xmlns:xlink="http://www.w3.org/1999/xlink"><path d="M15,7c0-3.866-3.134-7-7-7S1,3.134,1,7c0,1.678,0.592,3.218,1.577,4.423L0,14h2v2l2.786-2.786C5.749,13.713,6.84,14,8,14  s2.251-0.287,3.214-0.786L14,16v-2h2l-2.577-2.577C14.408,10.218,15,8.678,15,7z M8,11c-2.209,0-4-1.791-4-4c0-2.209,1.791-4,4-4  s4,1.791,4,4C12,9.209,10.209,11,8,11z"/></svg>