<?xml version="1.0" ?><!DOCTYPE svg  PUBLIC '-//W3C//DTD SVG 1.1//EN'  'http://www.w3.org/Graphics/SVG/1.1/DTD/svg11.dtd'><svg height="512px" style="enable-background:new 0 0 512 512;" version="1.1" viewBox="0 0 512 512" width="512px" xml:space="preserve" xmlns="http://www.w3.org/2000/svg" xmlns:xlink="http://www.w3.org/1999/xlink"><g id="_x36_33_x2C__coin_x2C__hand_x2C__stack_x2C__dollar_x2C__income"><g><path d="M332.66,393.867c-1.092,0.425-1.996,1.277-2.501,2.42    c-0.493,1.117-0.479,2.395-0.054,3.459c0.412,1.091,1.25,2.022,2.395,2.502c1.145,0.505,2.394,0.479,3.484,0.079    c1.078-0.425,1.996-1.277,2.501-2.422c0.493-1.143,0.479-2.394,0.053-3.485c-0.425-1.063-1.263-1.994-2.407-2.5    C334.986,393.441,333.737,393.441,332.66,393.867 M324.172,393.682c1.225-2.794,3.473-4.844,6.093-5.881    c2.634-1.037,5.668-1.064,8.462,0.16c2.805,1.223,4.855,3.459,5.892,6.092c1.024,2.635,1.052,5.666-0.159,8.46    s-3.473,4.843-6.107,5.88c-2.619,1.037-5.653,1.063-8.447-0.159c-2.805-1.224-4.841-3.459-5.878-6.093    C322.976,399.507,322.961,396.475,324.172,393.682z M180.574,387.801c2.62,1.037,4.868,3.087,6.093,5.881    c1.209,2.793,1.197,5.825,0.146,8.459c-1.037,2.634-3.073,4.869-5.88,6.093c-2.793,1.223-5.826,1.196-8.447,0.159    c-2.634-1.037-4.882-3.086-6.104-5.88c-1.197-2.794-1.185-5.825-0.16-8.46c1.037-2.633,3.087-4.869,5.893-6.092    C174.906,386.736,177.952,386.764,180.574,387.801z M180.693,396.287c-0.505-1.143-1.423-1.995-2.501-2.42    c-1.091-0.426-2.342-0.426-3.486,0.053c-1.143,0.506-1.981,1.438-2.394,2.5c-0.426,1.092-0.453,2.343,0.053,3.485    c0.493,1.145,1.411,1.997,2.5,2.422c1.077,0.399,2.329,0.426,3.473-0.079c1.144-0.479,1.983-1.411,2.407-2.502    C181.172,398.682,181.172,397.404,180.693,396.287z M349.047,370.348h-0.078l-0.412-0.053l0,0l-0.427-0.055l0,0l-1.796-0.186l0,0    l-0.492-0.026l0,0l-0.492-0.053l-0.505-0.026l0,0l-0.52-0.055l0,0l-0.519-0.025h-0.013l-0.532-0.027v-0.025l-0.545-0.026    l-0.561-0.028l-0.572-0.026l-0.012-0.026l-0.561-0.026l0,0l-0.598-0.026l0,0l-0.599-0.026l0,0l-0.612-0.028l0,0l-0.61-0.025l0,0    l-0.612-0.027h-0.014l-0.625-0.025l0,0l-0.639-0.027l0,0l-0.651-0.025h-0.015l-0.639-0.028l0,0l-0.664-0.026l0,0l-0.666-0.026    h-0.012h-0.68l0,0l-0.679-0.026h-0.013l-0.664-0.026h-0.015h-0.691l-0.014-0.026h-0.691l0,0l-0.706-0.027h-0.012h-0.691h-0.026    h-0.706h-0.014l-0.705-0.027h-0.012h-0.721h-0.012l-0.718-0.025h-0.014h-0.718h-0.028h-0.718h-0.025h-0.719h-0.027l-0.732-0.027    h-0.012h-0.746h-0.012h-0.732h-0.026h-0.745h-0.758h-0.015h-0.744h-0.026h-0.746h-0.012l-0.758,0.027h-0.014h-1.531h-0.012h-0.76    h-0.013l-0.758,0.025h-0.026h-0.746h-0.025l-0.746,0.027h-0.026h-0.759h-0.012h-0.76h-0.026l-0.758,0.027h-0.013l-0.76,0.026    h-0.026h-0.743h-0.027l-0.746,0.026h-0.025l-0.746,0.026h-0.026l-0.744,0.026h-0.026l-0.746,0.026h-0.026h-0.612h-0.026    l-0.598,0.028h-0.015l-0.61,0.025h-0.028l-0.599,0.027h-0.025l-0.599,0.025h-0.026l-0.586,0.027h-0.026l-0.599,0.025h-0.026    h-0.599h-0.026l-0.586,0.028h-0.026l-0.586,0.026h-0.026l-0.584,0.053h-0.028l-0.584,0.026h-0.015l-0.571,0.026h-0.026    l-0.585,0.028h-0.028l-0.571,0.026h-0.013l-0.586,0.025h-0.013l-0.571,0.053h-0.026l-0.561,0.027h-0.025l-0.559,0.027h-0.028    l-0.558,0.053h-0.026l-0.558,0.026l0,0l-0.561,0.053h-0.026l-0.545,0.026h-0.013l-0.56,0.055l0,0l-0.559,0.025l0,0l-0.545,0.053    h-0.015l-0.544,0.027h-0.014l-0.532,0.054l0,0l-0.531,0.053h-0.014l-0.52,0.026l-0.026,0.026l-0.506,0.028h-0.026l-0.505,0.053    l0,0l-0.52,0.053h-0.013l-0.505,0.055l0,0l-0.507,0.052l0,0l-0.492,0.053h-0.014l-0.479,0.055h-0.013l-0.493,0.053l0,0    l-0.478,0.052l0,0l-0.479,0.053l0,0l-0.467,0.055h-0.013l-0.452,0.053l0,0l-0.453,0.053l0,0l-0.453,0.055v0.026l-0.438,0.052    h-0.012l-0.427,0.055l0,0l-0.425,0.053v0.026l-0.427,0.053l0,0l-0.397,0.055h-0.015l-0.398,0.079h-0.014l-0.386,0.055l0,0    l-0.387,0.078l-0.372,0.053h-0.014l-0.372,0.081l-0.359,0.079l0,0l-0.358,0.055l0,0l-0.346,0.078l0,0l-0.333,0.081l0,0    l-0.332,0.079l0,0l-0.319,0.053v0.027l-0.307,0.053l0,0l-0.306,0.079l0,0l-0.293,0.081l0,0l-0.279,0.078l0,0    c-4.123,1.199-6.252,2.875-7.344,4.63c-1.089,1.729-1.302,3.832-1.408,5.694l-0.32,4.257c-0.69,8.567-1.835,22.694,0.479,26.046    c1.85,2.687,6.705,3.911,12.158,5.294l4.842,1.304c12.505,3.566,25.195,10.829,37.539,17.906    c12.851,7.343,25.355,14.499,36.329,16.706l0.093,0.028c1.078,0.213,1.478,0.398,1.545,0.398c0.371-0.746,0.371-2.687,0.346-5.241    c-0.027-4.789,0.824-14.021,1.769-24.504c1.876-20.537,4.19-46.132,1.649-49.67c-0.918-1.251-2.408-2.288-4.43-3.087    c-2.262-0.905-5.136-1.542-8.54-1.969l0,0l0,0H349.047z M375.359,218.994c3.566,5,3.14,11.598,0.346,18.861l-0.053,0.16    c-6.678,17.106-27.482,37.858-35.518,45.867l-1.835,1.835c-1.278,1.278-3.352,1.278-4.63,0c-1.277-1.277-1.277-3.352,0-4.629    l1.836-1.835c7.795-7.742,27.936-27.803,34.081-43.605l0.053-0.134c2.714-7.051,2.314-13.144-4.337-16.256h-0.014l-0.053-0.026    l-0.066-0.026l-0.053-0.026l-0.055-0.026l-0.053-0.028h-0.025l-0.027-0.025l-0.052-0.027h-0.055l-0.053-0.025l-0.052-0.027    l-0.067-0.025l-0.121-0.055l-0.053-0.026h-0.053l-0.054-0.026l-0.065-0.026l-0.546-0.187    c-11.973-4.045-29.398,9.365-45.043,26.711c-16.175,17.932-30.169,39.961-34.824,52.013l-0.546,1.517    c-3.006,8.833-4.644,21.656-5.547,34.612c-0.786,11.386-0.998,22.801-1.039,31.82h0.121l0.198-0.054l0.214-0.027l0.132-0.025    l0.293-0.053h0.055l0.358-0.081h0.014l0.346-0.053h0.107l0.252-0.054l0.187-0.027l0.186-0.025l0.279-0.053h0.093l0.36-0.055h0.025    l0.372-0.053h0.081l0.319-0.053l0.146-0.026l0.239-0.026l0.254-0.027l0.146-0.027l0.398-0.053l0.412-0.053h0.026l0.374-0.054    h0.134l0.291-0.053l0.214-0.026l0.944-0.08l0.093-0.027h0.026l0.427-0.025l0.066-0.027l0.358-0.025l0.186-0.028l0.267-0.026    l0.267-0.026l0.16-0.026l0.372-0.026h0.079l0.452-0.054h0.026l0.427-0.027l0.133-0.025l0.319-0.027l0.239-0.025h0.227l0.331-0.055    h0.134l0.452-0.026h0.015l0.465-0.053h0.079l0.399-0.026l0.187-0.026h0.293l0.291-0.054h0.188l0.398-0.027h0.081l0.491-0.053    h0.026l0.467-0.025h0.132l0.346-0.027l0.267-0.027h0.238l0.36-0.026l0.133-0.026l0.465-0.026h0.026l0.508-0.026h0.079l0.426-0.026    h0.198l0.308-0.028l0.319-0.025h0.186l0.425-0.027h0.081l0.518-0.025h0.04l0.479-0.027l0.133-0.025h0.372l0.267-0.028h0.253    l0.386-0.026h0.132l0.507-0.026h0.026l0.506-0.026h0.105l0.426-0.026h0.213h0.319l0.319-0.026h0.2l0.438-0.028h0.093l0.52-0.026    h0.04l0.491-0.025h0.16h0.372l0.267-0.027h0.265h0.4l0.133-0.025h0.506h0.026l0.718-0.027h0.055l0.639-0.025h0.146h0.572    l0.212-0.028h0.479h0.319l0.386-0.026h0.412h0.293l0.492-0.026h0.227h0.557h0.148l0.65-0.026h0.055h0.718h0.026l0.665-0.026h0.119    h0.599h0.199h0.506l0.279-0.026h0.426h0.373h0.333h0.452h0.253h0.532h0.159h0.639h0.067l0.703-0.027l0,0h0.693h0.093h0.599h0.186    h0.506h0.267h0.425h0.346h0.346l0.426,0.027h0.268h0.505h0.172h0.586h0.093h0.666h0.025h0.666h0.066l0.598,0.026h0.146h0.52h0.226    l0.438,0.026h0.308h0.358h0.371h0.281l0.65,0.026h0.532h0.106l0.613,0.026h0.025h0.639h0.041l0.598,0.026h0.105l0.52,0.028h0.187    h0.438l0.253,0.025h0.359l1.211,0.053h0.465h0.134l0.531,0.027h0.053l0.586,0.025h0.014l0.572,0.026h0.079l0.479,0.028h0.159    l0.398,0.026h0.227l0.346,0.026h0.28l0.266,0.026l0.346,0.026h0.186l0.412,0.026h0.134l0.467,0.028h0.053l0.52,0.025l0.013,0.027    l0.505,0.025h0.053l1.903,0.134h0.279l1.09,0.106c6.199-36.342,20.074-48.898,34.76-62.201    c9.604-8.701,19.594-17.746,27.735-34.641c6.412-13.302,9.525-50.416,8.102-83.22c-1.185-27.11-5.229-50.921-12.757-54.567    l-0.771-0.346c-3.805-1.516-7.158-0.506-9.964,1.73c-3.232,2.581-5.88,6.705-7.795,10.695l-1.344,3.006    c-3.897,9.604-6.944,23.625-8.634,37.806C374.309,195.448,373.977,209.123,375.359,218.994z M234.594,333.526    c-0.891-12.956-2.541-25.779-5.533-34.612l-0.56-1.517c-8.088-20.966-54.54-87.29-79.868-78.724l-0.532,0.187l-0.798,0.319    l-0.053,0.026l-0.054,0.026l-0.053,0.026h-0.026l-0.026,0.026l-0.054,0.027l-0.053,0.027l-0.053,0.025l-0.066,0.027l-0.041,0.025    h-0.026l-0.026,0.027l-0.053,0.027c-6.252,3.139-6.585,9.125-3.938,16.042l0.053,0.134c6.145,15.803,26.286,35.863,34.054,43.605    l1.862,1.835c1.278,1.277,1.278,3.352,0,4.629c-1.277,1.278-3.352,1.278-4.629,0l-1.835-1.835    c-8.035-8.009-28.839-28.761-35.504-45.867l-0.066-0.16c-2.794-7.264-3.22-13.861,0.346-18.861    c1.396-9.871,1.051-23.546-0.572-37.194c-1.637-13.835-4.297-28.015-9.963-40.812c-1.917-3.938-4.496-8.009-7.663-10.59    l-0.146-0.105c-2.808-2.236-6.159-3.246-9.964-1.702l-0.746,0.317c-7.554,3.646-11.599,27.457-12.783,54.567    c-2.167,49.831-2.234,83.379,35.837,117.86c14.673,13.273,28.534,25.833,34.731,62.068c6.412-0.479,15.271-0.719,24.663-0.719    h0.293c5.082,0,10.335,0.08,15.484,0.24c11.401,0.346,22.268,1.144,29.412,2.421C235.592,356.327,235.378,344.912,234.594,333.526    z M189.872,369.203c-10.816,0.053-20.672,0.453-26.405,1.145c-0.386,0.026-0.758,0-1.104-0.08l-0.479,0.054    c-3.486,0.425-6.412,1.063-8.714,1.995c-2.009,0.799-3.511,1.836-4.429,3.087c-2.528,3.538-0.214,29.104,1.65,49.618    c0.958,10.535,1.795,19.767,1.769,24.556c-0.014,2.555-0.026,4.495,0.333,5.215c0.079,0.026,0.477-0.159,1.569-0.372    c23.838-4.736,48.368-27.323,73.948-34.641l4.842-1.304c5.468-1.383,10.309-2.607,12.171-5.294    c2.316-3.352,1.172-17.479,0.479-26.046l-0.319-4.257c-0.12-1.862-0.332-3.965-1.409-5.694c-1.091-1.755-3.246-3.431-7.344-4.63    c-5.906-1.701-18.49-2.713-31.926-3.112c-4.362-0.159-8.792-0.212-13.115-0.239h-0.04h-0.732h-0.026H189.872z M267.077,377.185    L267.077,377.185 M308.29,47.978c-13.57-13.569-32.353-21.976-53.078-21.976c-20.671,0-39.375,8.327-52.942,21.816l-0.16,0.159    c-29.146,29.159-29.173,77.048-0.014,106.18c13.582,13.595,32.365,22.001,53.116,22.001c41.477,0,75.079-33.602,75.079-75.078    C330.291,80.355,321.884,61.572,308.29,47.978z M292.007,64.286c-9.417-9.419-22.427-15.245-36.795-15.245    c-14.392,0-27.402,5.826-36.793,15.219c-9.432,9.418-15.245,22.453-15.245,36.82s5.813,27.403,15.219,36.795    c9.418,9.418,22.428,15.244,36.82,15.244c14.368,0,27.378-5.826,36.795-15.244c9.418-9.392,15.244-22.428,15.244-36.795    S301.425,73.678,292.007,64.286z M255.212,42.496c16.149,0,30.796,6.572,41.398,17.161c10.614,10.614,17.174,25.273,17.174,41.423    c0,16.148-6.56,30.81-17.174,41.424c-10.576,10.588-25.222,17.16-41.398,17.16c-16.161,0-30.808-6.572-41.41-17.16    c-10.628-10.614-17.172-25.275-17.172-41.424c0-16.149,6.543-30.809,17.16-41.396C224.404,49.041,239.051,42.496,255.212,42.496z     M280.087,76.204c-6.357-6.384-15.164-10.321-24.875-10.321c-9.737,0-18.542,3.938-24.901,10.295    c-6.372,6.386-10.309,15.165-10.309,24.902c0,9.711,3.952,18.518,10.309,24.902c6.372,6.357,15.179,10.296,24.901,10.296    c9.632,0,18.358-3.856,24.716-10.136l0.159-0.16c6.374-6.385,10.323-15.191,10.323-24.902S286.461,82.563,280.087,76.204z     M255.212,59.07c11.601,0,22.109,4.711,29.704,12.293c7.597,7.608,12.305,18.117,12.305,29.717s-4.708,22.109-12.305,29.719    l-0.198,0.186c-7.596,7.475-18.013,12.105-29.506,12.105c-11.599,0-22.12-4.709-29.716-12.291    c-7.609-7.609-12.305-18.119-12.305-29.719c0-11.572,4.696-22.082,12.305-29.691l0.079-0.078    C233.185,63.754,243.666,59.07,255.212,59.07z M257.062,113.346c1.264-0.268,2.302-0.878,3.099-1.81    c0.799-0.932,1.198-2.021,1.198-3.272c0-1.145-0.346-2.102-1.011-2.927c-0.665-0.799-1.756-1.436-3.286-1.862V113.346z     M253.403,86.501c-0.997,0.346-1.769,0.933-2.341,1.729c-0.584,0.798-0.865,1.704-0.865,2.662c0,0.903,0.252,1.729,0.786,2.474    c0.518,0.771,1.33,1.383,2.419,1.862V86.501z M188.195,216.491c-1.383-1.144-1.583-3.218-0.439-4.603    c1.144-1.383,3.206-1.568,4.591-0.425c0.146,0.106,53.102,44.057,59.461,66.353c1.516,5.268,2.687,12.479,3.618,20.354    c0.917-7.875,2.1-15.086,3.604-20.354c6.371-22.296,59.315-66.246,59.476-66.353c1.383-1.144,3.433-0.958,4.576,0.425    c1.143,1.385,0.944,3.459-0.439,4.603c-0.146,0.107-51.506,42.702-57.334,63.108c-5.973,20.911-6.638,74.439-6.638,74.6l0,0v0.078    v0.027v0.054v0.026v0.053l-0.013,0.026l-0.026,0.24h-0.014v0.079l0,0l-0.067,0.214v0.026l-0.04,0.134l0,0l-0.026,0.079l0,0    l-0.053,0.159h-0.014l-0.066,0.134l0,0l-0.026,0.078l0,0l-0.12,0.215l0,0l-0.04,0.053l0,0l-0.038,0.053h-0.015l-0.133,0.214l0,0    l-0.094,0.104h-0.012l-0.04,0.055h-0.015l-0.04,0.053l-0.013,0.026l-0.04,0.053h-0.013l-0.106,0.106l0,0l-0.053,0.053l0,0    l-0.055,0.029l-0.012,0.025l0,0l-0.107,0.079h-0.014l0,0l-0.053,0.055h-0.013l-0.066,0.053l0,0l-0.134,0.079l0,0l-0.053,0.025    h-0.014l-0.066,0.055l0,0l-0.053,0.026h-0.026l-0.054,0.026l0,0l-0.079,0.053l0,0l-0.067,0.028h-0.014l-0.053,0.026h-0.014    l-0.067,0.026l0,0l-0.079,0.026l0,0l-0.067,0.025h-0.014l-0.065,0.027h-0.014l-0.067,0.027h-0.012h-0.054h-0.026l-0.053,0.027    h-0.026l-0.054,0.025h-0.026h-0.053h-0.026h-0.067l-0.014,0.026h-0.067h-0.012h-0.067h-0.014h-0.067h-0.012h-0.081l0,0h-0.079    h-0.014h-0.066h-0.013h-0.066h-0.026h-0.054h-0.026h-0.067h-0.012h-0.067L255,357.338h-0.067h-0.012h-0.067h-0.014l-0.067-0.025    h-0.012l-0.067-0.027h-0.014h-0.067h-0.012l-0.067-0.027h-0.014l-0.053-0.027h-0.026l-0.055-0.025h-0.012l-0.066-0.026l0,0    l-0.081-0.026l0,0l-0.066-0.026h-0.012l-0.053-0.028h-0.014l-0.066-0.053l0,0l-0.079-0.026l0,0l-0.055-0.026h-0.012l-0.066-0.055    l0,0l-0.067-0.025l0,0l-0.133-0.079l0,0l-0.067-0.053l0,0l-0.052-0.055h-0.014h-0.012l-0.107-0.079l0,0v-0.025l-0.053-0.029l0,0    l-0.067-0.053l0,0l-0.107-0.106h-0.012l-0.041-0.053l-0.014-0.026l-0.039-0.053h-0.014l-0.041-0.055h-0.012l-0.081-0.104h-0.012    l-0.133-0.214h-0.014l-0.026-0.053l0,0l-0.052-0.053l0,0l-0.107-0.215l0,0l-0.04-0.078l0,0l-0.067-0.134l0,0l-0.053-0.159l0,0    l-0.026-0.079l0,0l-0.053-0.134v-0.026l-0.055-0.214l0,0l-0.012-0.079h-0.014l-0.026-0.24v-0.026v-0.053v-0.026v-0.054    l-0.014-0.027v-0.078l0,0c0-0.16-0.665-53.688-6.637-74.6C239.702,259.193,188.354,216.599,188.195,216.491z M147.356,473.734    c-1.809,0-3.271-1.489-3.271-3.272c0-1.809,1.462-3.272,3.271-3.272h172.585c1.797,0,3.26,1.464,3.26,3.272    c0,1.783-1.463,3.272-3.26,3.272H147.356z M236.203,485.999c-1.795,0-3.271-1.464-3.271-3.245c0-1.809,1.476-3.272,3.271-3.272    h139.808c1.797,0,3.272,1.464,3.272,3.272c0,1.781-1.476,3.245-3.272,3.245H236.203z M390.313,485.999    c-1.797,0-3.273-1.464-3.273-3.245c0-1.809,1.477-3.272,3.273-3.272h17.479c1.81,0,3.272,1.464,3.272,3.272    c0,1.781-1.463,3.245-3.272,3.245H390.313z M109.95,485.653c-1.809,0-3.272-1.49-3.272-3.273c0-1.809,1.463-3.271,3.272-3.271    h66.247c1.795,0,3.259,1.462,3.259,3.271c0,1.783-1.463,3.273-3.259,3.273H109.95z M253.403,112.945v-10.563    c-3.285-0.93-5.692-2.34-7.208-4.256c-1.53-1.915-2.302-4.203-2.302-6.943s0.865-5.055,2.594-6.944    c1.742-1.862,4.044-2.953,6.917-3.218v-2.475h3.659v2.475c2.687,0.318,4.829,1.223,6.426,2.738    c1.568,1.49,2.579,3.514,3.032,6.041l-6.412,0.824c-0.398-1.995-1.409-3.325-3.046-4.045v9.844    c4.057,1.092,6.824,2.527,8.287,4.258c1.464,1.729,2.208,3.964,2.208,6.678c0,3.033-0.93,5.586-2.779,7.688    c-1.85,2.076-4.417,3.354-7.716,3.886v4.708h-3.659v-4.655c-2.899-0.372-5.24-1.438-7.063-3.218    c-1.823-1.81-2.967-4.365-3.473-7.637l6.545-0.771c0.279,1.33,0.785,2.501,1.516,3.459    C251.675,111.803,252.5,112.494,253.403,112.945z" style="fill-rule:evenodd;clip-rule:evenodd;"/></g></g><g id="Layer_1"/></svg>